{
    "asset" : {
        "generator" : "Khronos glTF Blender I/O v1.7.33",
        "version" : "2.0"
    },
    "scene" : 0,
    "scenes" : [
        {
            "name" : "Scene",
            "nodes" : [
                0,
                1,
                2
            ]
        }
    ],
    "nodes" : [
        {
            "mesh" : 0,
            "name" : "Cube",
            "scale" : [
                2.4099998474121094,
                1,
                3.0199999809265137
            ],
            "translation" : [
                0.023256246000528336,
                -0.01910838484764099,
                -0.20161102712154388
            ]
        },
        {
            "mesh" : 1,
            "name" : "Cone",
            "rotation" : [
                0.6225817799568176,
                0.01568448171019554,
                -0.782371461391449,
                -0.006387724541127682
            ],
            "translation" : [
                0.020507588982582092,
                -1.8172212839126587,
                -0.005964644253253937
            ]
        },
        {
            "mesh" : 2,
            "name" : "Aryan",
            "rotation" : [
                -0.009293838404119015,
                -0.7083420753479004,
                -0.7046791911125183,
                0.039903998374938965
            ],
            "translation" : [
                1.605635166168213,
                -0.24626028537750244,
                2.892879009246826
            ]
        }
    ],
    "materials" : [
        {
            "doubleSided" : true,
            "name" : "Material",
            "pbrMetallicRoughness" : {
                "baseColorFactor" : [
                    0.018611669540405273,
                    0.1336754411458969,
                    0.8000000715255737,
                    1
                ],
                "metallicFactor" : 0,
                "roughnessFactor" : 0.4000000059604645
            }
        },
        {
            "doubleSided" : true,
            "name" : "Material.001",
            "pbrMetallicRoughness" : {
                "baseColorFactor" : [
                    0.800000011920929,
                    0.800000011920929,
                    0.800000011920929,
                    1
                ],
                "metallicFactor" : 0,
                "roughnessFactor" : 0.5
            }
        }
    ],
    "meshes" : [
        {
            "name" : "Cube",
            "primitives" : [
                {
                    "attributes" : {
                        "POSITION" : 0,
                        "NORMAL" : 1,
                        "TEXCOORD_0" : 2
                    },
                    "indices" : 3,
                    "material" : 0
                }
            ]
        },
        {
            "name" : "Cone",
            "primitives" : [
                {
                    "attributes" : {
                        "POSITION" : 4,
                        "NORMAL" : 5,
                        "TEXCOORD_0" : 6
                    },
                    "indices" : 7,
                    "material" : 1
                }
            ]
        },
        {
            "name" : "Aryan",
            "primitives" : [
                {
                    "attributes" : {
                        "POSITION" : 8,
                        "NORMAL" : 9,
                        "TEXCOORD_0" : 10
                    },
                    "indices" : 11
                }
            ]
        }
    ],
    "accessors" : [
        {
            "bufferView" : 0,
            "componentType" : 5126,
            "count" : 24,
            "max" : [
                1,
                1,
                1
            ],
            "min" : [
                -1,
                -1,
                -1
            ],
            "type" : "VEC3"
        },
        {
            "bufferView" : 1,
            "componentType" : 5126,
            "count" : 24,
            "type" : "VEC3"
        },
        {
            "bufferView" : 2,
            "componentType" : 5126,
            "count" : 24,
            "type" : "VEC2"
        },
        {
            "bufferView" : 3,
            "componentType" : 5123,
            "count" : 36,
            "type" : "SCALAR"
        },
        {
            "bufferView" : 4,
            "componentType" : 5126,
            "count" : 128,
            "max" : [
                1,
                1,
                1
            ],
            "min" : [
                -1,
                -1,
                -1
            ],
            "type" : "VEC3"
        },
        {
            "bufferView" : 5,
            "componentType" : 5126,
            "count" : 128,
            "type" : "VEC3"
        },
        {
            "bufferView" : 6,
            "componentType" : 5126,
            "count" : 128,
            "type" : "VEC2"
        },
        {
            "bufferView" : 7,
            "componentType" : 5123,
            "count" : 186,
            "type" : "SCALAR"
        },
        {
            "bufferView" : 8,
            "componentType" : 5126,
            "count" : 237,
            "max" : [
                1.915000081062317,
                0,
                0.009000000543892384
            ],
            "min" : [
                0.017000000923871994,
                0,
                -0.6820000410079956
            ],
            "type" : "VEC3"
        },
        {
            "bufferView" : 9,
            "componentType" : 5126,
            "count" : 237,
            "type" : "VEC3"
        },
        {
            "bufferView" : 10,
            "componentType" : 5126,
            "count" : 237,
            "type" : "VEC2"
        },
        {
            "bufferView" : 11,
            "componentType" : 5123,
            "count" : 513,
            "type" : "SCALAR"
        }
    ],
    "bufferViews" : [
        {
            "buffer" : 0,
            "byteLength" : 288,
            "byteOffset" : 0
        },
        {
            "buffer" : 0,
            "byteLength" : 288,
            "byteOffset" : 288
        },
        {
            "buffer" : 0,
            "byteLength" : 192,
            "byteOffset" : 576
        },
        {
            "buffer" : 0,
            "byteLength" : 72,
            "byteOffset" : 768
        },
        {
            "buffer" : 0,
            "byteLength" : 1536,
            "byteOffset" : 840
        },
        {
            "buffer" : 0,
            "byteLength" : 1536,
            "byteOffset" : 2376
        },
        {
            "buffer" : 0,
            "byteLength" : 1024,
            "byteOffset" : 3912
        },
        {
            "buffer" : 0,
            "byteLength" : 372,
            "byteOffset" : 4936
        },
        {
            "buffer" : 0,
            "byteLength" : 2844,
            "byteOffset" : 5308
        },
        {
            "buffer" : 0,
            "byteLength" : 2844,
            "byteOffset" : 8152
        },
        {
            "buffer" : 0,
            "byteLength" : 1896,
            "byteOffset" : 10996
        },
        {
            "buffer" : 0,
            "byteLength" : 1026,
            "byteOffset" : 12892
        }
    ],
    "buffers" : [
        {
            "byteLength" : 13920,
            "uri" : "data:application/octet-stream;base64,"
        }
    ]
}
